<svg width="24" height="24" viewBox="0 0 24 24" fill="none" xmlns="http://www.w3.org/2000/svg">
<path fill-rule="evenodd" clip-rule="evenodd" d="M12.179 16.7995C10.721 15.5706 9.79655 13.742 9.79655 11.7C9.79655 9.65804 10.721 7.82944 12.179 6.60054C10.9949 5.6025 9.459 5 7.78067 5C4.0358 5 0.999982 7.99969 0.999982 11.7C0.999982 15.4003 4.0358 18.4 7.78067 18.4C9.459 18.4 10.9949 17.7975 12.179 16.7995Z" fill="#EB001B"/>
<path fill-rule="evenodd" clip-rule="evenodd" d="M12.179 16.7995C13.6369 15.5706 14.5614 13.742 14.5614 11.7C14.5614 9.65808 13.6369 7.82949 12.179 6.60059C10.7211 7.82949 9.79663 9.65808 9.79663 11.7C9.79663 13.742 10.7211 15.5706 12.179 16.7995Z" fill="#FF5F00"/>
<path fill-rule="evenodd" clip-rule="evenodd" d="M12.179 16.7995C13.6369 15.5706 14.5614 13.742 14.5614 11.7C14.5614 9.65804 13.6369 7.82944 12.179 6.60054C13.363 5.6025 14.8989 5 16.5772 5C20.3221 5 23.3579 7.99969 23.3579 11.7C23.3579 15.4003 20.3221 18.4 16.5772 18.4C14.8989 18.4 13.363 17.7975 12.179 16.7995Z" fill="#F79E1B"/>
</svg>
